<mxfile host="app.diagrams.net" modified="2024-06-04T04:59:59.807Z" agent="Mozilla/5.0 (Windows NT 10.0; Win64; x64) AppleWebKit/537.36 (KHTML, like Gecko) Chrome/125.0.0.0 Safari/537.36" version="24.4.13" etag="C-UYlCQRt1Ztsfu2xFTy" type="github">
  <diagram name="Page-1" id="5Mybi1lz5stjUXQ0Kypp">
    <mxGraphModel>
      <root>
        <mxCell id="0" />
        <mxCell id="1" parent="0" />
      </root>
    </mxGraphModel>
  </diagram>
</mxfile>
